# xmcd
#
# Track frame offsets:
#	150
#	17312
#	35998
#	51626
#	67578
#	83813
#	97579
#	112369
#	129294
#	145286
#	160230
#	176763
#	194305
#	211263
#	230419
#	248684
#	264427
#	280622
#	297239
#	314016
#
# Disc length: 4429 seconds
#
# Revision: 0
# Processed by: cddbd v1.5.2PL0 Copyright (c) Steve Scherf et al.
# Submitted via: EZCDAudioConverter 1.0.7.1
#
DISCID=1d114b14
DTITLE=Top Hits Monthly - Thc0407 
DYEAR=2005
DGENRE=Country
TTITLE0=Frankie J feat. Pitbull - Beautiful
TTITLE1=Britney Spears - Work B**CH
TTITLE2=Calvin Harris feat. Ayah Marar - Thinking About You
TTITLE3=Audien feat Michael S. - Leaving You
TTITLE4=Jake Miller - Collide
TTITLE5=DJ Sammy feat. The Jackie Boyz - Shut Up and Kiss Me
TTITLE6=Midnight Red - Take Me Home
TTITLE7=Jason Derulo - Marry Me
TTITLE8=Cher Lloyd feat. T.I. - I Wish
TTITLE9=Emeli Sande - My Kind of Love
TTITLE10=Travie McCoy feat. Jason Marz - Rough Water
TTITLE11=Lorde feat. The Weeknd - Royals (remix)
TTITLE12=Maejor Ali feat. Juicy J and Justin Bieber - Lolly
TTITLE13=Diplo feat. Imanos, Faustix and Kai - Revolution
TTITLE14=Bruno Mars - Gorilla
TTITLE15=Zendaya - Replay
TTITLE16=Katy Perry feat. Juicy J - Dark House
TTITLE17=Iggy Azalea feat. T.I. - Change Your Life
TTITLE18=Miley Cyrus - Wrecking Ball
TTITLE19=Rihanna - What Now
EXTD=
EXTT0=
EXTT1=
EXTT2=
EXTT3=
EXTT4=
EXTT5=
EXTT6=
EXTT7=
EXTT8=
EXTT9=
EXTT10=
EXTT11=
EXTT12=
EXTT13=
EXTT14=
EXTT15=
EXTT16=
EXTT17=
EXTT18=
EXTT19=
PLAYORDER=
